<?xml version="1.0" encoding="utf-8"?>
<!-- Generator: Adobe Illustrator 19.2.1, SVG Export Plug-In . SVG Version: 6.00 Build 0)  -->
<svg version="1.1" id="layer" xmlns="http://www.w3.org/2000/svg" xmlns:xlink="http://www.w3.org/1999/xlink" x="0px" y="0px"
	 viewBox="0 0 652 652" style="enable-background:new 0 0 652 652;" xml:space="preserve">
<style type="text/css">
	.st0{fill:#013D7C;}
	.st1{fill:#FFFFFF;}
	.st2{fill:#EA1C24;}
</style>
<path class="st0" d="M126.4,508.1c0,34.5,28,62.4,62.4,62.4h239.7c34.5,0,62.4-28,62.4-62.4v-376c0-34.5-28-62.4-62.4-61.6H188.8
	c-34.5-0.9-62.4,27.1-62.4,61.6V508.1z"/>
<path class="st1" d="M188.8,84c-26.6,0-48.2,21.6-48.2,48.2v376c0,26.6,21.6,48.2,48.2,48.2h239.7c26.6,0,48.2-21.6,48.2-48.2v-376
	c0-26.6-21.6-48.2-48.2-48.2H188.8z"/>
<path class="st0" d="M188.5,91.3c-22.6,0-40.9,18.3-40.9,40.9v376c0,22.6,18.3,40.9,40.9,40.9h239.7c22.6,0,40.9-18.3,40.9-40.9
	v-376c0-22.6-18.3-40.9-40.9-40.9H188.5z"/>
<path class="st0" d="M504,556.5c2.1,0,5.2,0.4,5.2-2.7c0-2.3-1.9-2.6-3.7-2.6h-4.2v5.2H504z M510.9,564.7h-2.2l-4.2-6.8h-3.3v6.8
	h-1.8v-14.7h6.4c3.9,0,5.2,1.5,5.2,3.9c0,2.9-2,4-4.6,4.1L510.9,564.7z M515.4,557.3c0-6.4-4.7-11.4-11.1-11.4
	c-6.5,0-11.2,5-11.2,11.4c0,6.5,4.7,11.5,11.2,11.5C510.8,568.8,515.4,563.8,515.4,557.3 M491.1,557.3c0-7.3,5.9-13.2,13.3-13.2
	c7.3,0,13.2,5.9,13.2,13.2c0,7.3-5.9,13.3-13.2,13.3C497,570.6,491.1,564.6,491.1,557.3"/>
<path class="st1" d="M187.5,183c0,1.5-0.9,2.4-2.5,2.4h-4v5.3h25.7v-5.3h-4.4c-1.6,0-2.5-0.9-2.5-2.4v-9.5h7.2
	c12,0,18.3-3.1,18.3-11.4c0-8.3-6.3-11.4-17-11.4H181v5.3h4c1.6,0,2.5,0.9,2.5,2.4V183z M199.8,156h6.7c3.7,0,6.6,2.4,6.6,6.1
	c0,3.7-3.1,6-7.7,6h-5.6V156z M277.3,174.9h-3c-1.6,0-2.5,0.9-2.5,2.4v13.9h-5.7l-1.4-2.9c-3.8,2.7-8.6,3.7-12.9,3.7
	c-13.6,0-23.1-7.1-23.1-20.6c0-13.7,9.2-21.8,23.1-21.8c3.8,0,8.5,1.2,11.7,4.1l1.3-3.4h5.9l0,14.1h-6.1c-0.2-6-4.1-9.1-10.7-9.1
	c-7.6,0-11.2,5.2-11.2,15.6c0,10.4,3.6,15.5,11.2,15.5c2.5,0,5.5-0.9,5.5-3.8v-5.1c0-1.5-0.9-2.4-2.5-2.4h-3.4v-5.3h23.8V174.9z
	 M294.6,174.6l6-13.4l5.5,13.4H294.6z M327.1,186.1c-4.4-0.7-4.5-1.7-6.2-5.3l-12.9-29.7h-9.8l-12.3,27.4c-1.9,4-3.1,7.1-8.7,7.7
	v4.6h19.6v-4.6l-0.6-0.1c-1.5-0.2-5-0.2-5-2.2l0.7-2.6l0.8-1.9h15.5l0.9,1.9l0.9,3.1c0,1.8-3.9,1.7-5.3,1.8v4.6h23.1v-4.6
	L327.1,186.1z M379,281.5c-0.3-1.2-2.5-6.9-3.6-9.9l18.2-12.4l0.4,2.2C394,261.4,381.6,279.9,379,281.5 M439.7,206.9
	c6.2-6.3,6.3-21.4,6.3-21.4c-6.2-11.4-19.3-14.8-19.3-14.8c-2.9-2.1-5.3-0.2-6.2,0.9h-0.1l-104.9-64c-7.6-4-18.2,9.6-20.8,14.5
	c-1.1,1.8,2.4,4.5,4.7,5.9c9.5,6.2,14.1-9.8,17.6-15.4l101.4,64l0.6,5.5c-0.1,8.3,6.6,15.2,2.7,27.3c-1.1,16.9-19.4,20.3-29.3,30.7
	c-9.2,9-27.2,7.8-34.8,15.2l-0.2,0.2l-0.1-0.3c-6.5-17.1-10.4-18-12.4-24.9c-8-3-17.4-3.7-25.1,0.4c-7.3,4.8-11,13.9-9.8,21.9
	c0.2,8.2,11.7,17,17.8,20.6c-3.9,5.6-5.8,12.5-5.8,15.4c-1,12.1,8.6,23.7,11.3,28.5c11.3,16.8,17.8,30.2,20.3,34.9l0.4,2.9
	c-0.2,0.3-9.8,17.2,6.1,41.5c6.5,12.5,15.8,40.3,15.9,40.5c3.7,4-5,1.5-5.9,10.6c-6.2,2.5-53.7,38.7-64.3,48.4
	c-4.3,1.2-9.8,1.1-11.6,6.4l-2.9,6.3c-4.6,5.3-9.9,14.6-10.9,23.8c-1.1,4.7,0.1,13.8,5.6,16.2c2.5,1.1,3.5,0.3,4.2,0l4.2-9.7
	c3.8-9.2,9.3-11.6,22.1-24.3c6.4,1.8,9.2,5.5,15.8,7.1c17.8-16.5,35.7-31.6,53.1-48.6c-2.7,26.2-5.2,53.2-5.1,60.4
	c-1.1,4.6-1.3,12.5,2,16.4c0,0,29,1.7,34.6,1.3c2.8-0.2,3-1.9,3-1.9s2.6-3.9-4.4-9.1c-2.1-1.5-7-7.6-10.7-10.1c5-1.1,10.3-2,11.4-2
	c-1.3-13.8-1.6-43.6-2.6-82.6c-4.3-40.4-4.7-54-24.8-136.7c14.2-16.2,13.7-26.2,27.4-42.9C423.5,251.5,434.8,222.3,439.7,206.9
	 M221.8,468.3v-9.4h8.8c2.5,0,4.4,1.9,4.4,4.5c0,3-2.3,4.8-4.3,4.8L221.8,468.3z M223.2,499.7l-1.6-1.4l0-8.7h5.7
	c1.8,0,2.7,0.3,2.7,2.2l0,4.1l0,3.7H223.2z M233.8,322.6c0,13.6-3,20.5-8.8,20.5c-2.9,0-8.9,0-8.9-20.5c0-20.5,6.2-20.5,8.9-20.5
	C228.7,302.2,233.8,302.2,233.8,322.6 M223.1,382.2l13.2,0l1.1,1.1c0,1,0,29.8,0,34.3c0,2.4-2.1,4.4-7.5,4.4c-5.4,0-8.1-2-8.1-4.4
	v-34.3L223.1,382.2z M264.7,499.9c-0.6,0-3-0.2-2.9-2.9l0-2.8c0-4.2-0.3-8.7-2.4-12.6l-1.7-2.6l0.7-0.4l0.1-0.1l0.1-0.1
	c4.6-4,7-9.3,7-15.7c0-4.4-1.1-9-3.1-12.9l-0.1-0.2l-0.1-0.2c-2.9-4.8-7.1-8-12.6-9.7c7.6-4.5,11.4-12.1,11.4-22.9v-34.7h9.1
	l-0.1-22.7h-7.3h-14.1c12.4-6.9,19.5-19.7,19.5-36.8c0-18.7-8.1-30.3-19-36.5h8.2V265h-16v-37.9c3.6,0.2,6,3.8,6.2,9.4l0.3,7
	l22.1,0.1v-39.4h-5.9h-83.6v39.4l22.1-0.1l0.3-7c0.2-5.6,2.7-9.3,6.2-9.4V265h-16v21.2h6.9c-11,6.3-19,17.8-19,36.5
	c0,17.1,7.1,29.9,19.5,36.8H181v22.7h9.1v37c0,7,3.2,14.2,11.1,19.2l-20.5,0l-0.1,22.4c0,0,6.8,0.1,8.7,0l1.3,1.6
	c0,6.3,0,28.8,0,35.8c0,1.9-1.3,1.3-1.3,1.7c-1.8-0.1-8.6,0-8.6,0l0,22.2H235l0-6.5c4.2,4.6,10.3,7,18.1,7h18.7V500L264.7,499.9z"/>
<path class="st2" d="M264.1,210.2v27.5l-10.4,0l-0.1-1.3c-0.4-10.5-6.5-15.2-12.4-15.2c-3.8,0-5.7,0.8-5.7,2.4V266
	c0,2.3,1.5,4.8,3.6,4.8h12.4v9.3h-52.6v-9.3h12.4c2.1,0,3.6-2.5,3.6-4.8v-42.5c0-1.6-1.9-2.4-5.7-2.4c-5.9,0-12,4.7-12.4,15.2
	l-0.1,1.3l-10.4,0v-27.5h76.3H264.1z M264.2,365.4h-1.4h-28.6h-1.4v10.9h5.9c2,0,3.3,0.3,3.9,1c0.7,0.7,0.7,1.8,0.7,3.5v0.9l0,37.8
	c-0.2,1.8-1.9,8.4-13.4,8.4c-8.8,0-14-3.4-14-9V381c0-4.4,2-4.7,3.9-4.7h7v-10.9h-39.9v10.9h4.5c2,0,3.3,0.3,3.9,1l0.7,3.5l0,0.9
	v37.5c0,9.4,8.4,19.5,32,19.5c24.1,0,27.2-11.6,27.2-21.7V381c0-4.4,2-4.7,4-4.7h5.1L264.2,365.4z M224.9,349
	c9.7,0,14.8-8.8,14.8-26.4c0-19.1-4.3-26.4-14.8-26.4c-9.9,0-14.8,8.3-14.8,26.4C210.2,346.8,218.6,349,224.9,349 M224.5,286
	c18.3,0,37.8,9.2,37.8,36.6c0,23.3-14.1,36.6-37.8,36.6c-23.7,0-37.8-13.4-37.8-36.6C186.8,295.2,206.3,286,224.5,286 M215.8,454.7
	V474c3.3,0,15.1,0,15.1,0c4.5,0,7.7-2,9.1-6c1.1-2.9,1-6.6,0.4-9c-1-3.8-4.5-6-9.5-6c-5.4,0-13-0.1-15.2-0.1V454.7z M266.3,505.5v11
	h-12.8c-8.1,0-13.4-2.9-16.3-8.9c-1.8-4.5-1.4-7.7-1.4-11.8l0.1-4.6c0.1-6.7-5.4-7.4-6.9-7.4l-12.9,0c0,4.4,0,17.6,0,17.6
	c0,1.8,1.8,3.8,3.4,3.8h10.8l0,10.7H187l0-10.7h7c1.6,0,3.2-1.9,3.2-3.6c0-10.8-0.1-44-0.1-44s-0.3-2.9-3.3-2.9c-3,0-6.8,0-6.8,0
	l0-10.7l52.5,0.1c9,0,14.8,2.6,18.2,8.3c1.6,3.1,2.5,6.7,2.5,10.2c0,4.9-1.7,8.5-4.9,11.2c-2.4,1.9-5.4,3.4-8.1,4.2
	c2.1,0.9,5.8,2.8,7.4,6.1c1.6,3,1.8,6.7,1.8,10l0,2.8c0,8.3,6.1,8.5,8.7,8.5L266.3,505.5z"/>
</svg>
